# xmcd
#
# Track frame offsets:
#	150
#	27096
#	45980
#	64976
#	77203
#	91089
#	105109
#	120833
#	137094
#	150620
#	163711
#	183414
#	205838
#	216096
#	230611
#	244552
#	256248
#	281229
#	312836
#
# Disc length: 4554
#
# Revision: 1
# Processed by: cddbd v1.5.1PL0 Copyright (c) Steve Scherf et al.
# Submitted via: CDex 1.51
# Normalized: r0:DSETVAR1,TDELIM( - )
#
DISCID=f411c813
DTITLE=Various Artist - SJC '02 Listening
DYEAR=1900
DGENRE=Jazz
TTITLE0=Lambert, Hendricks and Ross - Swingin 'Till The Girls Come Home
TTITLE1=Mel Torme - Route 66
TTITLE2=Ella Fitzgerald - Air Mail Special
TTITLE3=Annie Ross - Twisted
TTITLE4=King Pleasure - I'm In The Mood For Love
TTITLE5=Carmen McRae - Time After Time
TTITLE6=Nancy King - Dee Dah/This Can't be Love
TTITLE7=Dave Frishberg - I'm Hip
TTITLE8=Rosemary Clooney - Where Do You Start?
TTITLE9=Singers Unlimited - You Are The Sunshine Of My Life
TTITLE10=Tony Bennett - How Do You Keep The Music Playing?
TTITLE11=Bob Dorough - Yardbird Suite
TTITLE12=The Hi-Los - You Must Have Been A Beautiful Baby
TTITLE13=The Four Freshmen - Day In, Day Out
TTITLE14=Chet Baker - But Not For Me
TTITLE15=Nat King Cole - Orange-Colored Sky
TTITLE16=Joe Williams - Everyday
TTITLE17=Greta Matassa - The More I See You
TTITLE18=Sarah Vaughn - Send In The Clowns
EXTD=
EXTT0=
EXTT1=
EXTT2=
EXTT3=
EXTT4=
EXTT5=
EXTT6=
EXTT7=
EXTT8=
EXTT9=
EXTT10=
EXTT11=
EXTT12=
EXTT13=
EXTT14=
EXTT15=
EXTT16=
EXTT17=
EXTT18=
PLAYORDER=
